<mxfile host="app.diagrams.net" modified="2021-12-13T11:21:41.434Z" agent="5.0 (Windows NT 10.0; Win64; x64) AppleWebKit/537.36 (KHTML, like Gecko) Chrome/96.0.4664.93 Safari/537.36" etag="RgrSfbmm6cy47RWgPOBt" version="15.9.4" type="github">
  <diagram id="3zXHzJfg8xfVJkQlkFv8" name="Page-1">
    <mxGraphModel dx="1028" dy="664" grid="1" gridSize="10" guides="1" tooltips="1" connect="1" arrows="1" fold="1" page="1" pageScale="1" pageWidth="1654" pageHeight="1169" math="0" shadow="0">
      <root>
        <mxCell id="0" />
        <mxCell id="1" parent="0" />
        <mxCell id="_PnWRsvVBpfSLfWOnmKM-28" value="" style="rounded=0;whiteSpace=wrap;html=1;dashed=1;strokeWidth=2;gradientColor=none;" vertex="1" parent="1">
          <mxGeometry x="630" y="140" width="350" height="170" as="geometry" />
        </mxCell>
        <mxCell id="_PnWRsvVBpfSLfWOnmKM-21" value="" style="rounded=0;whiteSpace=wrap;html=1;dashed=1;strokeWidth=2;gradientColor=none;" vertex="1" parent="1">
          <mxGeometry x="580" y="360" width="590" height="302" as="geometry" />
        </mxCell>
        <mxCell id="_PnWRsvVBpfSLfWOnmKM-16" value="" style="rounded=0;whiteSpace=wrap;html=1;dashed=1;strokeWidth=2;gradientColor=none;" vertex="1" parent="1">
          <mxGeometry x="710" y="452" width="310" height="70" as="geometry" />
        </mxCell>
        <mxCell id="_PnWRsvVBpfSLfWOnmKM-19" value="" style="rounded=0;whiteSpace=wrap;html=1;dashed=1;strokeWidth=2;gradientColor=none;" vertex="1" parent="1">
          <mxGeometry x="850" y="573" width="170" height="70" as="geometry" />
        </mxCell>
        <mxCell id="MuU_jWilXaCxCdvd7VaN-1" value="Computer" style="rounded=0;whiteSpace=wrap;html=1;" parent="1" vertex="1">
          <mxGeometry x="40" y="169" width="100" height="40" as="geometry" />
        </mxCell>
        <mxCell id="MuU_jWilXaCxCdvd7VaN-2" value="Github" style="rounded=0;whiteSpace=wrap;html=1;" parent="1" vertex="1">
          <mxGeometry x="250" y="169" width="100" height="40" as="geometry" />
        </mxCell>
        <mxCell id="MuU_jWilXaCxCdvd7VaN-3" value="" style="endArrow=classic;html=1;rounded=0;exitX=1;exitY=0.5;exitDx=0;exitDy=0;entryX=0;entryY=0.5;entryDx=0;entryDy=0;" parent="1" source="MuU_jWilXaCxCdvd7VaN-1" target="MuU_jWilXaCxCdvd7VaN-2" edge="1">
          <mxGeometry width="50" height="50" relative="1" as="geometry">
            <mxPoint x="220" y="335" as="sourcePoint" />
            <mxPoint x="270" y="285" as="targetPoint" />
          </mxGeometry>
        </mxCell>
        <mxCell id="MuU_jWilXaCxCdvd7VaN-4" value="Jenkins" style="rounded=0;whiteSpace=wrap;html=1;" parent="1" vertex="1">
          <mxGeometry x="450" y="169" width="100" height="40" as="geometry" />
        </mxCell>
        <mxCell id="MuU_jWilXaCxCdvd7VaN-5" value="SSH" style="text;html=1;align=center;verticalAlign=middle;resizable=0;points=[];autosize=1;strokeColor=none;fillColor=none;" parent="1" vertex="1">
          <mxGeometry x="180" y="155" width="40" height="20" as="geometry" />
        </mxCell>
        <mxCell id="MuU_jWilXaCxCdvd7VaN-7" value="" style="endArrow=classic;html=1;rounded=0;exitX=1;exitY=0.5;exitDx=0;exitDy=0;" parent="1" source="MuU_jWilXaCxCdvd7VaN-2" target="MuU_jWilXaCxCdvd7VaN-4" edge="1">
          <mxGeometry width="50" height="50" relative="1" as="geometry">
            <mxPoint x="150" y="199" as="sourcePoint" />
            <mxPoint x="260" y="199" as="targetPoint" />
          </mxGeometry>
        </mxCell>
        <mxCell id="MuU_jWilXaCxCdvd7VaN-8" value="SSH Clone" style="text;html=1;align=center;verticalAlign=middle;resizable=0;points=[];autosize=1;strokeColor=none;fillColor=none;" parent="1" vertex="1">
          <mxGeometry x="365" y="155" width="70" height="20" as="geometry" />
        </mxCell>
        <mxCell id="MuU_jWilXaCxCdvd7VaN-9" value="" style="endArrow=classic;html=1;rounded=0;exitX=0.5;exitY=0;exitDx=0;exitDy=0;entryX=0.5;entryY=0;entryDx=0;entryDy=0;" parent="1" source="MuU_jWilXaCxCdvd7VaN-2" target="MuU_jWilXaCxCdvd7VaN-4" edge="1">
          <mxGeometry width="50" height="50" relative="1" as="geometry">
            <mxPoint x="360" y="199" as="sourcePoint" />
            <mxPoint x="460" y="199" as="targetPoint" />
            <Array as="points">
              <mxPoint x="300" y="65" />
              <mxPoint x="500" y="65" />
            </Array>
          </mxGeometry>
        </mxCell>
        <mxCell id="MuU_jWilXaCxCdvd7VaN-11" value="" style="endArrow=classic;html=1;rounded=0;exitX=0.5;exitY=1;exitDx=0;exitDy=0;entryX=0.5;entryY=1;entryDx=0;entryDy=0;" parent="1" source="MuU_jWilXaCxCdvd7VaN-4" target="MuU_jWilXaCxCdvd7VaN-2" edge="1">
          <mxGeometry width="50" height="50" relative="1" as="geometry">
            <mxPoint x="300" y="349" as="sourcePoint" />
            <mxPoint x="500" y="349" as="targetPoint" />
            <Array as="points">
              <mxPoint x="500" y="315" />
              <mxPoint x="300" y="315" />
            </Array>
          </mxGeometry>
        </mxCell>
        <mxCell id="MuU_jWilXaCxCdvd7VaN-12" value="Webhook Trigger" style="text;html=1;align=center;verticalAlign=middle;resizable=0;points=[];autosize=1;strokeColor=none;fillColor=none;" parent="1" vertex="1">
          <mxGeometry x="350" y="35" width="110" height="20" as="geometry" />
        </mxCell>
        <mxCell id="MuU_jWilXaCxCdvd7VaN-13" value="Status API/ Deployment API" style="text;html=1;align=center;verticalAlign=middle;resizable=0;points=[];autosize=1;strokeColor=none;fillColor=none;" parent="1" vertex="1">
          <mxGeometry x="315" y="325" width="160" height="20" as="geometry" />
        </mxCell>
        <mxCell id="MuU_jWilXaCxCdvd7VaN-14" value="Install Jenkins" style="rounded=0;whiteSpace=wrap;html=1;" parent="1" vertex="1">
          <mxGeometry x="60" y="415" width="100" height="40" as="geometry" />
        </mxCell>
        <mxCell id="MuU_jWilXaCxCdvd7VaN-15" value="Install Plugins (Git, Github, Pipeline, others?)" style="rounded=0;whiteSpace=wrap;html=1;" parent="1" vertex="1">
          <mxGeometry x="210" y="405" width="120" height="60" as="geometry" />
        </mxCell>
        <mxCell id="MuU_jWilXaCxCdvd7VaN-16" value="Configure Project Settings" style="rounded=0;whiteSpace=wrap;html=1;" parent="1" vertex="1">
          <mxGeometry x="380" y="405" width="120" height="60" as="geometry" />
        </mxCell>
        <mxCell id="MuU_jWilXaCxCdvd7VaN-17" value="" style="endArrow=classic;html=1;rounded=0;exitX=1;exitY=0.5;exitDx=0;exitDy=0;entryX=0;entryY=0.5;entryDx=0;entryDy=0;" parent="1" source="MuU_jWilXaCxCdvd7VaN-14" target="MuU_jWilXaCxCdvd7VaN-15" edge="1">
          <mxGeometry width="50" height="50" relative="1" as="geometry">
            <mxPoint x="150" y="199" as="sourcePoint" />
            <mxPoint x="260" y="199" as="targetPoint" />
          </mxGeometry>
        </mxCell>
        <mxCell id="MuU_jWilXaCxCdvd7VaN-18" value="" style="endArrow=classic;html=1;rounded=0;entryX=0;entryY=0.5;entryDx=0;entryDy=0;" parent="1" target="MuU_jWilXaCxCdvd7VaN-16" edge="1">
          <mxGeometry width="50" height="50" relative="1" as="geometry">
            <mxPoint x="330" y="435" as="sourcePoint" />
            <mxPoint x="220" y="445" as="targetPoint" />
          </mxGeometry>
        </mxCell>
        <mxCell id="MuU_jWilXaCxCdvd7VaN-19" value="" style="endArrow=classic;html=1;rounded=0;entryX=0.75;entryY=1;entryDx=0;entryDy=0;exitX=1;exitY=0.5;exitDx=0;exitDy=0;" parent="1" source="MuU_jWilXaCxCdvd7VaN-16" target="MuU_jWilXaCxCdvd7VaN-4" edge="1">
          <mxGeometry width="50" height="50" relative="1" as="geometry">
            <mxPoint x="340" y="445" as="sourcePoint" />
            <mxPoint x="390" y="445" as="targetPoint" />
            <Array as="points">
              <mxPoint x="525" y="435" />
            </Array>
          </mxGeometry>
        </mxCell>
        <mxCell id="MuU_jWilXaCxCdvd7VaN-20" value="" style="endArrow=classic;html=1;rounded=0;exitX=1;exitY=0.5;exitDx=0;exitDy=0;" parent="1" source="MuU_jWilXaCxCdvd7VaN-4" edge="1">
          <mxGeometry width="50" height="50" relative="1" as="geometry">
            <mxPoint x="700" y="415" as="sourcePoint" />
            <mxPoint x="650" y="189" as="targetPoint" />
            <Array as="points" />
          </mxGeometry>
        </mxCell>
        <mxCell id="_PnWRsvVBpfSLfWOnmKM-1" value="Main Build&amp;nbsp;" style="rounded=0;whiteSpace=wrap;html=1;" vertex="1" parent="1">
          <mxGeometry x="850" y="169" width="100" height="40" as="geometry" />
        </mxCell>
        <mxCell id="_PnWRsvVBpfSLfWOnmKM-2" value="Test Build" style="rounded=0;whiteSpace=wrap;html=1;" vertex="1" parent="1">
          <mxGeometry x="650" y="169" width="100" height="40" as="geometry" />
        </mxCell>
        <mxCell id="_PnWRsvVBpfSLfWOnmKM-5" value="" style="endArrow=classic;html=1;rounded=0;exitX=1;exitY=0.5;exitDx=0;exitDy=0;entryX=0;entryY=0.5;entryDx=0;entryDy=0;" edge="1" parent="1" source="_PnWRsvVBpfSLfWOnmKM-2" target="_PnWRsvVBpfSLfWOnmKM-1">
          <mxGeometry width="50" height="50" relative="1" as="geometry">
            <mxPoint x="560" y="199" as="sourcePoint" />
            <mxPoint x="660" y="199" as="targetPoint" />
            <Array as="points" />
          </mxGeometry>
        </mxCell>
        <mxCell id="_PnWRsvVBpfSLfWOnmKM-6" value="Merge if successful" style="text;html=1;align=center;verticalAlign=middle;resizable=0;points=[];autosize=1;strokeColor=none;fillColor=none;" vertex="1" parent="1">
          <mxGeometry x="740" y="149" width="120" height="20" as="geometry" />
        </mxCell>
        <mxCell id="_PnWRsvVBpfSLfWOnmKM-7" value="EC2 Build" style="rounded=0;whiteSpace=wrap;html=1;" vertex="1" parent="1">
          <mxGeometry x="850" y="260" width="100" height="40" as="geometry" />
        </mxCell>
        <mxCell id="_PnWRsvVBpfSLfWOnmKM-8" value="" style="endArrow=classic;html=1;rounded=0;exitX=0.5;exitY=1;exitDx=0;exitDy=0;" edge="1" parent="1" source="_PnWRsvVBpfSLfWOnmKM-1">
          <mxGeometry width="50" height="50" relative="1" as="geometry">
            <mxPoint x="760" y="199" as="sourcePoint" />
            <mxPoint x="900" y="260" as="targetPoint" />
            <Array as="points" />
          </mxGeometry>
        </mxCell>
        <mxCell id="_PnWRsvVBpfSLfWOnmKM-9" value="EC2 - App" style="rounded=0;whiteSpace=wrap;html=1;" vertex="1" parent="1">
          <mxGeometry x="720" y="468" width="100" height="40" as="geometry" />
        </mxCell>
        <mxCell id="_PnWRsvVBpfSLfWOnmKM-10" value="EC2 - NAT" style="rounded=0;whiteSpace=wrap;html=1;" vertex="1" parent="1">
          <mxGeometry x="880" y="468" width="100" height="40" as="geometry" />
        </mxCell>
        <mxCell id="_PnWRsvVBpfSLfWOnmKM-11" value="EC2 - DB" style="rounded=0;whiteSpace=wrap;html=1;" vertex="1" parent="1">
          <mxGeometry x="880" y="588" width="100" height="40" as="geometry" />
        </mxCell>
        <mxCell id="_PnWRsvVBpfSLfWOnmKM-18" value="Public Subnet" style="text;html=1;align=center;verticalAlign=middle;resizable=0;points=[];autosize=1;strokeColor=none;fillColor=none;" vertex="1" parent="1">
          <mxGeometry x="610" y="477" width="90" height="20" as="geometry" />
        </mxCell>
        <mxCell id="_PnWRsvVBpfSLfWOnmKM-20" value="Private Subnet" style="text;html=1;align=center;verticalAlign=middle;resizable=0;points=[];autosize=1;strokeColor=none;fillColor=none;" vertex="1" parent="1">
          <mxGeometry x="750" y="598" width="90" height="20" as="geometry" />
        </mxCell>
        <mxCell id="_PnWRsvVBpfSLfWOnmKM-23" value="VPC" style="text;html=1;align=center;verticalAlign=middle;resizable=0;points=[];autosize=1;strokeColor=none;fillColor=none;" vertex="1" parent="1">
          <mxGeometry x="1010" y="305" width="40" height="20" as="geometry" />
        </mxCell>
        <mxCell id="_PnWRsvVBpfSLfWOnmKM-24" value="" style="endArrow=classic;html=1;rounded=0;exitX=0.5;exitY=1;exitDx=0;exitDy=0;entryX=0.5;entryY=0;entryDx=0;entryDy=0;" edge="1" parent="1" source="_PnWRsvVBpfSLfWOnmKM-7" target="_PnWRsvVBpfSLfWOnmKM-9">
          <mxGeometry width="50" height="50" relative="1" as="geometry">
            <mxPoint x="900" y="318" as="sourcePoint" />
            <mxPoint x="910" y="288" as="targetPoint" />
            <Array as="points">
              <mxPoint x="900" y="348" />
              <mxPoint x="770" y="348" />
            </Array>
          </mxGeometry>
        </mxCell>
        <mxCell id="_PnWRsvVBpfSLfWOnmKM-25" value="" style="endArrow=classic;html=1;rounded=0;entryX=0.5;entryY=0;entryDx=0;entryDy=0;" edge="1" parent="1" target="_PnWRsvVBpfSLfWOnmKM-10">
          <mxGeometry width="50" height="50" relative="1" as="geometry">
            <mxPoint x="900" y="438" as="sourcePoint" />
            <mxPoint x="770" y="537" as="targetPoint" />
            <Array as="points">
              <mxPoint x="930" y="438" />
            </Array>
          </mxGeometry>
        </mxCell>
        <mxCell id="_PnWRsvVBpfSLfWOnmKM-26" value="" style="endArrow=classic;html=1;rounded=0;exitX=0.5;exitY=1;exitDx=0;exitDy=0;" edge="1" parent="1">
          <mxGeometry width="50" height="50" relative="1" as="geometry">
            <mxPoint x="899.5" y="209" as="sourcePoint" />
            <mxPoint x="899.5" y="260" as="targetPoint" />
            <Array as="points" />
          </mxGeometry>
        </mxCell>
        <mxCell id="_PnWRsvVBpfSLfWOnmKM-27" value="" style="endArrow=classic;html=1;rounded=0;exitX=0.5;exitY=1;exitDx=0;exitDy=0;" edge="1" parent="1" source="_PnWRsvVBpfSLfWOnmKM-10" target="_PnWRsvVBpfSLfWOnmKM-11">
          <mxGeometry width="50" height="50" relative="1" as="geometry">
            <mxPoint x="909.5" y="327" as="sourcePoint" />
            <mxPoint x="909.5" y="378" as="targetPoint" />
            <Array as="points" />
          </mxGeometry>
        </mxCell>
        <mxCell id="_PnWRsvVBpfSLfWOnmKM-29" value="Create a key pair" style="rounded=0;whiteSpace=wrap;html=1;" vertex="1" parent="1">
          <mxGeometry x="60" y="638" width="100" height="40" as="geometry" />
        </mxCell>
        <mxCell id="_PnWRsvVBpfSLfWOnmKM-30" value="Create security group" style="rounded=0;whiteSpace=wrap;html=1;" vertex="1" parent="1">
          <mxGeometry x="220" y="703" width="100" height="40" as="geometry" />
        </mxCell>
        <mxCell id="_PnWRsvVBpfSLfWOnmKM-31" value="Launch EC2 Instance" style="rounded=0;whiteSpace=wrap;html=1;" vertex="1" parent="1">
          <mxGeometry x="360" y="703" width="100" height="40" as="geometry" />
        </mxCell>
        <mxCell id="_PnWRsvVBpfSLfWOnmKM-32" value="Install and configure Jenkins" style="rounded=0;whiteSpace=wrap;html=1;" vertex="1" parent="1">
          <mxGeometry x="610" y="703" width="100" height="40" as="geometry" />
        </mxCell>
        <mxCell id="_PnWRsvVBpfSLfWOnmKM-33" value="Connect to EC2 Instance" style="rounded=0;whiteSpace=wrap;html=1;" vertex="1" parent="1">
          <mxGeometry x="490" y="703" width="100" height="40" as="geometry" />
        </mxCell>
        <mxCell id="_PnWRsvVBpfSLfWOnmKM-34" value="Configure Jenkins" style="rounded=0;whiteSpace=wrap;html=1;" vertex="1" parent="1">
          <mxGeometry x="60" y="700" width="100" height="40" as="geometry" />
        </mxCell>
      </root>
    </mxGraphModel>
  </diagram>
</mxfile>
